<svg width="310.61000366210936px" height="116.96000366210937px" xmlns="http://www.w3.org/2000/svg" viewBox="94.69499816894532 16.519998168945314 310.61000366210936 116.96000366210937" style="background: rgba(0, 0, 0, 0);" preserveAspectRatio="xMidYMid"><defs><filter id="editing-extrusion" x="-100%" y="-100%" width="300%" height="300%"><feFlood result="color1" flood-color="#444444"></feFlood><feConvolveMatrix order="9,9" divisor="1" kernelMatrix="1 0 0 0 0 0 0 0 0 0 1 0 0 0 0 0 0 0 0 0 1 0 0 0 0 0 0 0 0 0 1 0 0 0 0 0 0 0 0 0 1 0 0 0 0 0 0 0 0 0 1 0 0 0 0 0 0 0 0 0 1 0 0 0 0 0 0 0 0 0 1 0 0 0 0 0 0 0 0 0 1" in="SourceAlpha" result="extrude"></feConvolveMatrix><feComposite in="color1" in2="extrude" result="comp-extrude" operator="in"></feComposite><feOffset dx="4.5" dy="4.5" in="comp-extrude" result="offset-extrude"></feOffset><feMerge><feMergeNode in="offset-extrude"></feMergeNode><feMergeNode in="SourceGraphic"></feMergeNode></feMerge></filter></defs><g filter="url(#editing-extrusion)"><g transform="translate(152.53649139404297, 96.94500541687012)"><path d="M41.74-25.53L39.93-15.54L29.08-15.54L26.40 0L13.67 0L21.04-41.88L47.17-41.88L43.62-31.16L31.83-31.16L30.89-25.53L41.74-25.53ZM12.19-3.22L11.66-0.20L-16.75-3.22L12.19-3.22ZM14.47-16.15L13.94-13.13L-14.47-16.15L14.47-16.15ZM15.61-22.58L15.08-19.56L-13.33-22.58L15.61-22.58ZM16.75-29.01L16.21-26.00L-12.19-29.01L16.75-29.01ZM17.82-35.44L17.35-32.43L-11.06-35.44L17.82-35.44ZM13.33-9.71L12.80-6.70L-15.61-9.71L13.33-9.71ZM18.96-41.88L18.43-38.86L-9.92-41.88L18.96-41.88ZM66.87-16.15L66.33-13.13L44.62-16.15L66.87-16.15ZM68.00-22.58L67.47-19.56L45.76-22.58L68.00-22.58ZM90.32-16.15L89.78-13.13L68.07-16.15L90.32-16.15ZM91.46-22.58L90.92-19.56L69.21-22.58L91.46-22.58ZM106.20-26.00L106.20-26.00L77.79-29.01L106.46-29.01L106.46-29.01Q106.33-27.87 106.20-26.00ZM105.93-9.71L104.86-6.77L77.05-9.71L105.93-9.71ZM103.65-3.22L102.64-0.27L74.77-3.22L103.65-3.22ZM79.60-35.44L108.47-35.44L107.27-32.50L79.60-35.44ZM85.83-41.88L114.70-41.88L114.70-41.81L114.70-41.81Q112.69-40.74 111.22-39.13L111.22-39.13L85.83-41.88ZM82.41-22.58L106.26-22.58L106.26-22.58Q106.53-20.84 106.80-19.97L106.80-19.97L82.41-22.58ZM113.57-14.00L113.57-14.00L113.50-13.67L92.19-16.15L109.41-16.15L109.41-16.15Q111.29-14.54 113.57-14.00ZM121.81-25.19L124.35-25.19L124.35-25.19Q126.50-25.19 127.40-25.69L127.40-25.69L127.40-25.69Q128.31-26.20 128.64-28.01L128.64-28.01L129.51-32.76L126.90-32.76L126.90-32.76Q124.75-32.76 123.82-32.26L123.82-32.26L123.82-32.26Q122.88-31.76 122.61-29.95L122.61-29.95L121.81-25.19ZM126.43-15.28L123.21-15.28L123.21-15.28Q113.97-15.28 111.09-17.59L111.09-17.59L111.09-17.59Q108.21-19.90 108.21-24.59L108.21-24.59L108.21-24.59Q108.21-33.70 113.33-38.29L113.33-38.29L113.33-38.29Q118.46-42.88 128.04-42.88L128.04-42.88L128.04-42.88Q135.54-42.88 138.79-39.70L138.79-39.70L138.79-39.70Q142.04-36.52 142.04-29.88L142.04-29.88L142.04-29.88Q142.04-26.20 141.10-20.97L141.10-20.97L141.10-20.97Q139.03-9.45 134.50-4.22L134.50-4.22L134.50-4.22Q129.98 1.01 120.83 1.01L120.83 1.01L120.83 1.01Q111.69 1.01 104.92-0.74L104.92-0.74L108.74-11.79L108.74-11.79Q114.50-10.25 118.49-10.25L118.49-10.25L118.49-10.25Q122.48-10.25 125.63-10.65L125.63-10.65L126.43-15.28ZM157.12-22.58L156.58-19.56L128.17-22.58L157.12-22.58ZM155.91-13.13L155.91-13.13L127.50-16.15L156.18-16.15L156.18-16.15Q156.04-15.01 155.91-13.13ZM129.71-29.01L158.66-29.01L157.85-26.00L129.71-29.01ZM127.97-9.71L155.91-9.71L155.91-9.71Q156.04-8.11 156.31-6.70L156.31-6.70L127.97-9.71ZM132.33-35.44L161.13-35.44L161.13-35.44Q160.20-33.57 159.80-32.50L159.80-32.50L132.33-35.44ZM138.15-41.88L166.96-41.88L166.96-41.88Q165.02-40.60 163.75-39.13L163.75-39.13L138.15-41.88ZM159.93-0.20L159.93-0.20L131.52-3.22L157.52-3.22L157.52-3.22Q158.46-1.41 159.93-0.20ZM179.83-42.88L179.83-42.88L179.83-42.88Q187.60-42.88 190.82-39.83L190.82-39.83L190.82-39.83Q194.03-36.78 194.03-30.35L194.03-30.35L194.03-30.35Q194.03-26.80 192.99-20.94L192.99-20.94L192.99-20.94Q191.96-15.08 190.62-11.29L190.62-11.29L190.62-11.29Q189.28-7.50 186.93-4.56L186.93-4.56L186.93-4.56Q182.44 1.01 172.12 1.01L172.12 1.01L172.12 1.01Q164.35 1.01 161.13-2.01L161.13-2.01L161.13-2.01Q157.92-5.03 157.92-11.46L157.92-11.46L157.92-11.46Q157.92-15.54 158.92-21.14L158.92-21.14L158.92-21.14Q159.93-26.73 161.30-30.55L161.30-30.55L161.30-30.55Q162.68-34.37 165.02-37.25L165.02-37.25L165.02-37.25Q169.51-42.88 179.83-42.88ZM170.05-9.78L172.73-9.78L172.73-9.78Q175.61-9.78 176.88-10.42L176.88-10.42L176.88-10.42Q178.15-11.06 178.56-13.33L178.56-13.33L181.84-32.09L178.82-32.09L178.82-32.09Q176.01-32.09 174.90-31.49L174.90-31.49L174.90-31.49Q173.80-30.89 173.40-28.54L173.40-28.54L170.05-9.78Z" fill="#ffffff"></path></g></g><style>text {
  font-size: 64px;
  font-family: Arial Black;
  dominant-baseline: central;
  text-anchor: middle;
}</style></svg>