<svg width="215.9149963378906px" height="132.3199981689453px" xmlns="http://www.w3.org/2000/svg" viewBox="142.0425018310547 8.840000915527355 215.9149963378906 132.3199981689453" style="background: rgba(0, 0, 0, 0);" preserveAspectRatio="xMidYMid"><defs><filter id="editing-extrusion" x="-100%" y="-100%" width="300%" height="300%"><feFlood result="color1" flood-color="#444444"></feFlood><feConvolveMatrix order="9,9" divisor="1" kernelMatrix="1 0 0 0 0 0 0 0 0 0 1 0 0 0 0 0 0 0 0 0 1 0 0 0 0 0 0 0 0 0 1 0 0 0 0 0 0 0 0 0 1 0 0 0 0 0 0 0 0 0 1 0 0 0 0 0 0 0 0 0 1 0 0 0 0 0 0 0 0 0 1 0 0 0 0 0 0 0 0 0 1" in="SourceAlpha" result="extrude"></feConvolveMatrix><feComposite in="color1" in2="extrude" result="comp-extrude" operator="in"></feComposite><feOffset dx="4.5" dy="4.5" in="comp-extrude" result="offset-extrude"></feOffset><feMerge><feMergeNode in="offset-extrude"></feMergeNode><feMergeNode in="SourceGraphic"></feMergeNode></feMerge></filter></defs><g filter="url(#editing-extrusion)"><g transform="translate(181.12412357330322, 103.47500228881836)"><path d="M-1.14-43.42L-1.21-43.62L-1.21-43.62Q1.68-44.76 4.02-46.70L4.02-46.70L4.02-46.70Q6.37-48.64 8.11-50.85L8.11-50.85L8.11-50.85Q11.19-49.85 13.40-49.25L13.40-49.25L13.40-49.25Q15.61-48.64 17.49-48.31L17.49-48.31L17.49-48.31Q19.36-47.97 21.21-47.87L21.21-47.87L21.21-47.87Q23.05-47.77 25.39-47.77L25.39-47.77L25.39-47.77Q24.72-48.91 24.46-49.81L24.46-49.81L24.46-49.81Q24.19-50.72 24.12-51.72L24.12-51.72L24.12-51.72Q28.54-48.91 32.90-47.94L32.90-47.94L32.90-47.94Q37.25-46.97 41.07-46.97L41.07-46.97L41.07-46.97Q42.28-46.97 43.35-47.07L43.35-47.07L43.35-47.07Q44.42-47.17 45.43-47.30L45.43-47.30L45.43-47.30Q43.82-45.83 41.54-44.52L41.54-44.52L41.54-44.52Q39.26-43.22 36.75-42.21L36.75-42.21L36.75-42.21Q34.24-41.21 31.62-40.60L31.62-40.60L31.62-40.60Q29.01-40.00 26.80-40.00L26.80-40.00L26.80-40.00Q25.26-40.00 23.38-40.07L23.38-40.07L23.38-40.07Q21.51-40.13 19.97-40.27L19.97-40.27L19.97-40.27Q19.83-39.26 19.80-38.19L19.80-38.19L19.80-38.19Q19.77-37.12 19.77-35.98L19.77-35.98L19.77-28.27L19.77-28.27Q21.11-28.01 22.78-28.01L22.78-28.01L22.78-28.01Q24.32-28.01 25.93-28.71L25.93-28.71L25.93-28.71Q27.54-29.41 29.08-30.28L29.08-30.28L29.08-30.28Q30.95-29.01 32.96-27.60L32.96-27.60L32.96-27.60Q34.97-26.20 37.25-24.86L37.25-24.86L37.25-24.86Q35.31-23.72 33.16-22.18L33.16-22.18L33.16-22.18Q31.02-20.64 29.15-19.30L29.15-19.30L29.15-19.30Q27.74-20.23 26.16-20.84L26.16-20.84L26.16-20.84Q24.59-21.44 23.05-21.44L23.05-21.44L23.05-21.44Q21.44-21.44 19.83-20.97L19.83-20.97L19.83-20.97Q19.90-18.43 19.87-15.51L19.87-15.51L19.87-15.51Q19.83-12.60 20.23-9.88L20.23-9.88L20.23-9.88Q20.64-7.17 21.64-4.86L21.64-4.86L21.64-4.86Q22.65-2.55 24.72-1.27L24.72-1.27L24.72-1.27Q21.84 0.07 20.33 1.68L20.33 1.68L20.33 1.68Q18.83 3.28 17.35 5.23L17.35 5.23L17.35 5.23Q16.21 3.28 13.57 1.57L13.57 1.57L13.57 1.57Q10.92-0.13 7.91-1.27L7.91-1.27L7.91-1.27Q8.58-2.28 9.08-3.58L9.08-3.58L9.08-3.58Q9.58-4.89 9.92-6.40L9.92-6.40L9.92-6.40Q10.25-7.91 10.42-9.48L10.42-9.48L10.42-9.48Q10.59-11.06 10.59-12.60L10.59-12.60L10.59-12.60Q10.59-16.01 9.82-18.96L9.82-18.96L9.82-18.96Q9.04-21.91 7.64-23.38L7.64-23.38L7.64-23.38Q9.38-25.80 10.08-29.71L10.08-29.71L10.08-29.71Q10.79-33.63 10.79-37.92L10.79-37.92L10.79-37.92Q10.79-38.86 10.75-39.83L10.75-39.83L10.75-39.83Q10.72-40.80 10.65-41.74L10.65-41.74L10.65-41.74Q8.24-42.48 6.00-43.11L6.00-43.11L6.00-43.11Q3.75-43.75 2.14-43.75L2.14-43.75L2.14-43.75Q1.21-43.75 0.44-43.65L0.44-43.65L0.44-43.65Q-0.34-43.55-1.14-43.42L-1.14-43.42ZM45.43-13.27L45.43-22.51L45.43-22.51Q47.17-21.64 49.14-21.47L49.14-21.47L49.14-21.47Q51.12-21.31 53.00-21.31L53.00-21.31L59.76-21.31L59.76-21.31Q61.64-21.31 63.62-21.47L63.62-21.47L63.62-21.47Q65.59-21.64 67.34-22.51L67.34-22.51L67.34-13.27L67.34-13.27Q65.66-13.87 63.75-14.14L63.75-14.14L63.75-14.14Q61.84-14.41 59.83-14.41L59.83-14.41L52.93-14.41L52.93-14.41Q50.92-14.41 49.01-14.14L49.01-14.14L49.01-14.14Q47.10-13.87 45.43-13.27L45.43-13.27ZM90.58-49.25L90.58-49.25L90.58-49.25Q92.93-47.70 95.71-46.36L95.71-46.36L95.71-46.36Q98.49-45.02 102.44-44.96L102.44-44.96L102.44-44.96Q102.31-43.89 102.01-42.18L102.01-42.18L102.01-42.18Q101.71-40.47 101.37-37.96L101.37-37.96L101.37-37.96Q101.04-35.44 100.77-32.13L100.77-32.13L100.77-32.13Q100.50-28.81 100.50-24.59L100.50-24.59L100.50-24.59Q100.50-22.51 100.57-19.43L100.57-19.43L100.57-19.43Q100.63-16.35 100.80-13.27L100.80-13.27L100.80-13.27Q100.97-10.18 101.24-7.60L101.24-7.60L101.24-7.60Q101.51-5.03 101.91-3.95L101.91-3.95L101.91-3.95Q101.64-3.95 101.40-3.99L101.40-3.99L101.40-3.99Q101.17-4.02 100.97-4.02L100.97-4.02L100.97-4.02Q97.35-4.02 93.87-2.75L93.87-2.75L93.87-2.75Q90.38-1.47 87.37 0.67L87.37 0.67L87.37 0.67Q86.23 0 84.69-0.64L84.69-0.64L84.69-0.64Q83.15-1.27 81.51-1.78L81.51-1.78L81.51-1.78Q79.86-2.28 78.16-2.71L78.16-2.71L78.16-2.71Q76.45-3.15 74.91-3.42L74.91-3.42L74.91-3.42Q76.38-6.23 79.26-7.74L79.26-7.74L79.26-7.74Q82.14-9.25 85.36-9.25L85.36-9.25L85.36-9.25Q87.10-9.25 88.71-8.71L88.71-8.71L88.71-8.71Q90.32-8.17 91.59-7.04L91.59-7.04L91.59-7.04Q91.39-8.71 91.39-10.38L91.39-10.38L91.39-10.38Q91.39-11.26 91.42-12.63L91.42-12.63L91.42-12.63Q91.46-14.00 91.49-15.44L91.49-15.44L91.49-15.44Q91.52-16.88 91.56-18.26L91.56-18.26L91.56-18.26Q91.59-19.63 91.59-20.50L91.59-20.50L83.42-15.41L83.42-15.41Q81.81-17.29 79.80-18.53L79.80-18.53L79.80-18.53Q77.79-19.77 75.38-20.57L75.38-20.57L75.38-20.57Q75.91-22.91 76.15-25.49L76.15-25.49L76.15-25.49Q76.38-28.07 76.38-30.69L76.38-30.69L76.38-30.69Q76.38-34.71 76.01-38.29L76.01-38.29L76.01-38.29Q75.64-41.88 75.31-44.35L75.31-44.35L75.31-44.35Q77.59-44.35 79.93-44.86L79.93-44.86L79.93-44.86Q82.28-45.36 84.32-46.10L84.32-46.10L84.32-46.10Q86.36-46.83 88.00-47.67L88.00-47.67L88.00-47.67Q89.65-48.51 90.58-49.25ZM91.72-39.80L88.57-42.14L88.57-42.14Q88.37-41.54 87.77-41.04L87.77-41.04L87.77-41.04Q87.17-40.54 86.53-40.13L86.53-40.13L86.53-40.13Q85.89-39.73 85.32-39.46L85.32-39.46L85.32-39.46Q84.76-39.20 84.69-39.13L84.69-39.13L84.69-22.51L91.72-27.07L91.72-39.80ZM110.82-43.68L110.82-43.68L110.82-43.68Q114.57-43.82 118.09-45.19L118.09-45.19L118.09-45.19Q121.61-46.57 126.09-49.38L126.09-49.38L126.09-49.38Q127.70-47.97 128.98-47.07L128.98-47.07L128.98-47.07Q130.25-46.16 131.52-45.59L131.52-45.59L131.52-45.59Q132.79-45.02 134.23-44.76L134.23-44.76L134.23-44.76Q135.68-44.49 137.55-44.35L137.55-44.35L137.55-7.30L137.55-7.30Q134.67-6.63 132.46-5.43L132.46-5.43L132.46-5.43Q130.25-4.22 128.57-2.85L128.57-2.85L128.57-2.85Q126.90-1.47 125.73-0.20L125.73-0.20L125.73-0.20Q124.55 1.07 123.75 1.88L123.75 1.88L123.75 1.88Q122.48 0.67 120.57-0.87L120.57-0.87L120.57-0.87Q118.66-2.41 116.65-3.85L116.65-3.85L116.65-3.85Q114.64-5.29 112.79-6.43L112.79-6.43L112.79-6.43Q110.95-7.57 109.81-7.97L109.81-7.97L109.81-7.97Q110.15-8.78 110.38-10.65L110.38-10.65L110.38-10.65Q110.62-12.53 110.75-15.08L110.75-15.08L110.75-15.08Q110.89-17.62 110.95-20.60L110.95-20.60L110.95-20.60Q111.02-23.58 111.02-26.67L111.02-26.67L111.02-26.67Q111.02-28.88 110.99-31.36L110.99-31.36L110.99-31.36Q110.95-33.84 110.92-36.15L110.92-36.15L110.92-36.15Q110.89-38.46 110.85-40.43L110.85-40.43L110.85-40.43Q110.82-42.41 110.82-43.68ZM127.97-8.11L128.10-38.99L128.10-38.99Q126.36-39.80 124.35-40.57L124.35-40.57L124.35-40.57Q122.34-41.34 120.00-43.01L120.00-43.01L120.00-43.01Q120.06-40.74 120.13-36.65L120.13-36.65L120.13-36.65Q120.20-32.56 120.20-27.54L120.20-27.54L120.20-27.54Q120.20-23.92 120.13-20.33L120.13-20.33L120.13-20.33Q120.06-16.75 119.86-13.13L119.86-13.13L119.86-13.13Q120.00-13.00 120.97-12.43L120.97-12.43L120.97-12.43Q121.94-11.86 123.21-11.09L123.21-11.09L123.21-11.09Q124.49-10.32 125.79-9.51L125.79-9.51L125.79-9.51Q127.10-8.71 127.97-8.11L127.97-8.11Z" fill="#ffffff"></path></g></g><style>text {
  font-size: 64px;
  font-family: Arial Black;
  dominant-baseline: central;
  text-anchor: middle;
}</style></svg>